<svg width="24" height="49" viewBox="0 0 24 49" fill="none" xmlns="http://www.w3.org/2000/svg">
<path d="M14.1851 5.12678V9.55355H23.0563V0.700012H14.1851V5.12678ZM6.92199 7.87488L0.900024 13.862V21.8433L2.94522 19.8052C4.06833 18.6876 6.79089 15.9746 8.99778 13.7875L13.0051 9.80338V5.84558C13.0051 3.66726 12.992 1.88341 12.9746 1.88779C12.9527 1.88779 10.2301 4.5833 6.92199 7.87488ZM10.2913 14.2038C8.40782 16.1104 6.86081 17.6883 6.85207 17.7102C6.84333 17.7321 8.49085 17.7496 10.9162 17.7496H14.9935L17.6636 15.041C19.1276 13.5552 20.679 11.9773 21.1073 11.5346L21.8895 10.7369H13.7131L10.2913 14.2038ZM15.0372 26.9538C19.4597 31.3894 23.0825 35.0184 23.0869 35.0184C23.0957 35.0184 23.1 33.1995 23.1 30.973V26.9319L19.0315 22.9084L14.9629 18.8892H6.99628L15.0372 26.9538ZM3.50022 21.107L1.48998 23.1012L8.06258 29.6712L14.6396 36.2369L8.31605 42.6053L1.99254 48.9781L6.06983 48.9912L10.1427 49L16.4706 42.6491C19.9492 39.1559 22.7941 36.2807 22.7941 36.2544C22.7941 36.215 5.59786 19.139 5.53668 19.1215C5.52357 19.1171 4.60585 20.0112 3.50022 21.107Z" fill="#FFD600"/>
<path d="M4.98606 36.2983L1.0224 40.2561L1.05736 44.2533C1.07484 46.4535 1.10106 48.2549 1.11417 48.2549C1.12728 48.2549 3.81488 45.5726 7.0837 42.2897L13.027 36.3289L11.0255 34.3347C9.91988 33.239 9.00216 32.3448 8.98468 32.3448C8.9672 32.3448 7.16673 34.1243 4.98606 36.2983Z" fill="#FFD600"/>
</svg>
